<svg xmlns="http://www.w3.org/2000/svg" fill="none" viewBox="0 0 16.048 16.045"><defs><linearGradient id="a" x1=".5" x2=".5" y1="0" y2="1"><stop offset="0%" stop-color="#fcce35"/><stop offset="100%" stop-color="#fd3535"/></linearGradient><linearGradient id="c" x1="-.05" x2=".961" y1=".071" y2="1.023"><stop offset="0%" stop-color="#fff"/><stop offset="76.563%" stop-color="#fff" stop-opacity="0"/><stop offset="100%" stop-color="#fff" stop-opacity="0"/></linearGradient><linearGradient id="d" x1=".5" x2=".5" y1="0" y2="1"><stop offset="0%" stop-color="#fcce35"/><stop offset="100%" stop-color="#fd3535"/></linearGradient><linearGradient id="e" x1=".5" x2=".5" y1="0" y2="1"><stop offset="0%" stop-color="#fcce35"/><stop offset="100%" stop-color="#fd3535"/></linearGradient><linearGradient id="f" x1=".5" x2=".5" y1="0" y2="1"><stop offset="0%" stop-color="#fcce35"/><stop offset="100%" stop-color="#fd3535"/></linearGradient><filter id="b" width="1" height="1" x="0" y="0" color-interpolation-filters="sRGB" filterUnits="objectBoundingBox"><feFlood flood-opacity="0" result="BackgroundImageFix"/><feBlend in="SourceGraphic" in2="BackgroundImageFix" result="shape"/><feGaussianBlur in="BackgroundImageFix" stdDeviation=".364"/><feComposite in2="SourceAlpha" operator="in" result="effect1_foregroundBlur"/><feBlend in="SourceGraphic" in2="effect1_foregroundBlur" result="shape"/></filter><filter id="g" width="1.218" height="1.16" x="-.054" y="-.04" color-interpolation-filters="sRGB" filterUnits="objectBoundingBox"><feFlood flood-opacity="0" result="BackgroundImageFix"/><feColorMatrix in="SourceAlpha" values="0 0 0 0 0 0 0 0 0 0 0 0 0 0 0 0 0 0 127 0"/><feOffset dx=".226" dy=".226"/><feGaussianBlur stdDeviation=".113"/><feColorMatrix values="0 0 0 0 0.9284999966621399 0 0 0 0 0.2789251208305359 0 0 0 0 0.13147559762001038 0 0 0 1 0"/><feBlend in2="BackgroundImageFix" result="effect1_dropShadow"/><feBlend in="SourceGraphic" in2="effect1_dropShadow" result="shape"/></filter></defs><path fill="url(#a)" d="m11.057 7.2-.074.055.015-.112c.018-.167.354-1.128-2.228-2.32C5.93 3.513 4.938 1.148 5.308.006c.043-.133-1.962 2.094-2.539 3.77-1.136 3.539.603 4.502.462 4.19-.137.274-1.385-.63-1.616-1.258-.365.883-.598 3.596.924 5.446 1.521 1.85 3.623 3.135 6.566 2.507s4.63-2.551 4.993-5.065c.362-2.513-2.248-5.196-3.251-5.82.323 1.183.636 2.573.21 3.423"/><g filter="url(#b)" transform="matrix(.9646 -.26368 .31495 .9491 -1.154 .345)"><path fill="#f8b77b" fill-opacity=".6" d="M4.359 8.917C-.191 10.093.13 13.24 1.437 14.919c1.307 1.68 4.888 2.446 7.624.904s5.383-6.601.786-12.092Q8.91 7.741 4.36 8.917"/><path fill="url(#c)" fill-rule="evenodd" d="M6.905 16.604q1.18-.189 2.174-.75 1.098-.618 1.935-1.778.917-1.27 1.226-2.811.35-1.747-.156-3.555-.574-2.05-2.209-4.002l-.046-.056-.017.071Q8.878 7.711 4.35 8.881q-1.623.42-2.574 1.206-.843.696-1.11 1.633-.234.824.001 1.728.211.813.741 1.494.493.633 1.37 1.076.87.439 1.93.597 1.104.165 2.197-.01m4.05-2.57q-.828 1.146-1.912 1.757-.983.555-2.15.741-1.082.174-2.174.011-1.05-.156-1.908-.59-.862-.435-1.345-1.056-.52-.669-.728-1.468-.23-.884-.001-1.69.26-.914 1.085-1.596.94-.776 2.546-1.191Q8.898 7.78 9.866 3.81q1.586 1.914 2.148 3.92.5 1.79.155 3.52-.306 1.527-1.214 2.784"/></g><path fill="url(#d)" d="M8.308 2.31q-.173.314 0 .628t.462.419q.057-.21 0-.419-.058-.21-.462-.628"/><path fill="url(#e)" d="M1.615 2.938q-.288.472-.23.838.057.367.461.629.289-.472.231-.838-.058-.367-.462-.629"/><path fill="url(#f)" d="M.156 6.708q-.187.27-.15.479.038.21.3.359.187-.27.15-.479-.038-.21-.3-.359"/><g filter="url(#g)"><path fill="#fff" fill-opacity=".9" d="M7.784 11.307H6.669a.207.207 0 0 1-.194-.28L7.583 8.13a.21.21 0 0 1 .194-.133h1.869c.147 0 .248.149.192.285l-.645 1.577h1.214c.179 0 .274.21.157.343l-2.977 3.38c-.145.163-.413.021-.357-.19z"/></g></svg>